<svg width="337" height="68" viewBox="0 0 337 68" fill="none" xmlns="http://www.w3.org/2000/svg">
<path d="M3.694 66.282C2.446 66.282 1.536 65.996 0.964 65.424C0.392 64.852 0.106 63.942 0.106 62.694V53.568C0.106 52.892 0.184 52.32 0.34 51.852C0.548 51.384 0.834 50.994 1.198 50.682L8.998 44.13C6.242 43.298 4.058 41.894 2.446 39.918C0.886 37.89 0.106 35.004 0.106 31.26V23.07C0.106 20.73 0.496 18.65 1.276 16.83C2.056 15.01 3.174 13.476 4.63 12.228L14.77 3.726C16.174 2.582 17.916 1.698 19.996 1.074C22.076 0.397999 24.442 0.0599985 27.094 0.0599985H48.934C50.182 0.0599985 51.092 0.345998 51.664 0.917997C52.236 1.49 52.522 2.4 52.522 3.648V12.93C52.522 13.606 52.418 14.178 52.21 14.646C52.054 15.114 51.794 15.504 51.43 15.816L44.41 21.666C47.686 22.394 50.312 23.772 52.288 25.8C54.316 27.776 55.33 30.87 55.33 35.082V43.272C55.33 45.612 54.94 47.692 54.16 49.512C53.38 51.332 52.236 52.866 50.728 54.114L40.666 62.538C39.21 63.734 37.442 64.644 35.362 65.268C33.282 65.944 30.942 66.282 28.342 66.282H3.694ZM38.404 57C43.396 57 47.322 55.83 50.182 53.49C53.094 51.098 54.55 47.692 54.55 43.272V35.082C54.55 30.714 53.432 27.594 51.196 25.722C48.96 23.85 46.022 22.654 42.382 22.134L30.76 20.574C30.084 20.522 29.564 20.262 29.2 19.794C28.836 19.326 28.654 18.754 28.654 18.078C28.654 17.402 28.836 16.856 29.2 16.44C29.564 15.972 30.084 15.738 30.76 15.738H48.934C49.922 15.738 50.624 15.53 51.04 15.114C51.508 14.646 51.742 13.918 51.742 12.93V3.648C51.742 2.66 51.508 1.958 51.04 1.542C50.624 1.074 49.922 0.839998 48.934 0.839998H27.094C22.05 0.839998 18.098 2.036 15.238 4.428C12.378 6.768 10.948 10.148 10.948 14.568V22.758C10.948 27.126 12.04 30.246 14.224 32.118C16.46 33.99 19.398 35.186 23.038 35.706L34.738 37.344C35.414 37.396 35.908 37.63 36.22 38.046C36.584 38.462 36.766 39.112 36.766 39.996C36.766 40.62 36.584 41.166 36.22 41.634C35.908 42.05 35.414 42.258 34.738 42.258H13.756C12.768 42.258 12.04 42.492 11.572 42.96C11.156 43.376 10.948 44.078 10.948 45.066V54.192C10.948 55.18 11.156 55.908 11.572 56.376C12.04 56.792 12.768 57 13.756 57H38.404ZM44.722 7.86V8.64H27.406C25.222 8.64 23.48 9.238 22.18 10.434C20.88 11.63 20.23 13.138 20.23 14.958V21.354C20.23 23.174 20.594 24.448 21.322 25.176C22.05 25.904 23.012 26.372 24.208 26.58L40.666 29.934C42.226 30.246 43.5 30.922 44.488 31.962C45.528 33.002 46.048 34.874 46.048 37.578V42.102C46.048 44.39 45.268 46.288 43.708 47.796C42.148 49.252 40.042 49.98 37.39 49.98H17.968V49.2H37.39C39.782 49.2 41.68 48.55 43.084 47.25C44.54 45.898 45.268 44.182 45.268 42.102V37.578C45.268 35.134 44.826 33.47 43.942 32.586C43.11 31.65 41.966 31.026 40.51 30.714L24.052 27.36C22.7 27.1 21.582 26.58 20.698 25.8C19.866 24.968 19.45 23.486 19.45 21.354V14.958C19.45 12.878 20.178 11.188 21.634 9.888C23.09 8.536 25.014 7.86 27.406 7.86H44.722ZM70.462 67.452C65.418 67.452 61.258 66.906 57.982 65.814C54.758 64.774 52.236 63.37 50.416 61.602C48.596 59.834 47.322 57.806 46.594 55.518C45.918 53.23 45.58 50.864 45.58 48.42V12.15C45.58 11.474 45.658 10.902 45.814 10.434C46.022 9.966 46.308 9.576 46.672 9.264L56.734 0.761999C56.994 0.553998 57.332 0.397997 57.748 0.293995C58.216 0.137998 58.71 0.0599985 59.23 0.0599985H71.476C72.724 0.0599985 73.634 0.345998 74.206 0.917997C74.778 1.49 75.064 2.4 75.064 3.648V39.216C75.064 39.684 75.142 40.126 75.298 40.542C75.454 40.906 75.792 41.192 76.312 41.4V12.15C76.312 11.474 76.39 10.902 76.546 10.434C76.702 9.966 76.936 9.602 77.248 9.342L77.326 9.264L87.466 0.761999C87.726 0.553998 88.064 0.397997 88.48 0.293995C88.896 0.137998 89.39 0.0599985 89.962 0.0599985H101.818C103.066 0.0599985 103.976 0.345998 104.548 0.917997C105.12 1.49 105.406 2.4 105.406 3.648V42.258C105.406 44.65 105.068 46.86 104.392 48.888C103.716 50.916 102.494 52.658 100.726 54.114L90.586 62.538C88.766 64.098 86.244 65.294 83.02 66.126C79.796 67.01 75.61 67.452 70.462 67.452ZM104.626 42.258V3.648C104.626 2.66 104.392 1.958 103.924 1.542C103.508 1.074 102.806 0.839998 101.818 0.839998H89.962C88.974 0.839998 88.246 1.074 87.778 1.542C87.362 1.958 87.154 2.66 87.154 3.648V39.216C87.154 40.256 86.764 41.14 85.984 41.868C85.204 42.544 83.436 42.882 80.68 42.882C77.976 42.882 76.234 42.544 75.454 41.868C74.674 41.14 74.284 40.256 74.284 39.216V3.648C74.284 2.66 74.05 1.958 73.582 1.542C73.166 1.074 72.464 0.839998 71.476 0.839998H59.23C58.242 0.839998 57.514 1.074 57.046 1.542C56.63 1.958 56.422 2.66 56.422 3.648V42.258C56.422 44.65 56.76 46.834 57.436 48.81C58.164 50.734 59.412 52.398 61.18 53.802C63 55.154 65.47 56.22 68.59 57C71.71 57.78 75.688 58.17 80.524 58.17C85.36 58.17 89.338 57.78 92.458 57C95.578 56.22 98.022 55.154 99.79 53.802C101.61 52.398 102.858 50.734 103.534 48.81C104.262 46.834 104.626 44.65 104.626 42.258ZM65.002 7.86H65.782V40.386C65.782 43.298 66.796 45.664 68.824 47.484C70.904 49.252 74.83 50.136 80.602 50.136C86.374 50.136 90.3 49.252 92.38 47.484C94.46 45.664 95.5 43.298 95.5 40.386V7.86H96.28V40.386C96.28 43.506 95.188 46.054 93.004 48.03C90.82 49.954 86.686 50.916 80.602 50.916C74.518 50.916 70.384 49.954 68.2 48.03C66.068 46.054 65.002 43.506 65.002 40.386V7.86ZM134.945 8.64H117.941V31.182H134.945C138.169 31.182 140.327 30.402 141.419 28.842C142.511 27.282 143.057 25.072 143.057 22.212V16.752C143.057 14.36 142.381 12.41 141.029 10.902C139.729 9.394 137.701 8.64 134.945 8.64ZM126.365 14.88H132.215C133.567 14.88 134.477 15.244 134.945 15.972C135.413 16.648 135.647 17.506 135.647 18.546V21.198C135.647 22.238 135.413 23.122 134.945 23.85C134.477 24.526 133.567 24.864 132.215 24.864H126.365V14.88ZM117.941 49.98H117.161V7.86H134.945C137.961 7.86 140.197 8.718 141.653 10.434C143.109 12.098 143.837 14.204 143.837 16.752V22.134C143.837 24.526 143.525 26.502 142.901 28.062C142.277 29.57 141.029 30.61 139.157 31.182H140.015C143.187 31.182 145.553 31.91 147.113 33.366C148.673 34.77 149.453 36.824 149.453 39.528V49.98H148.673V39.528C148.673 36.98 147.971 35.082 146.567 33.834C145.163 32.534 142.979 31.884 140.015 31.884H117.941V49.98ZM123.557 57C124.545 57 125.247 56.792 125.663 56.376C126.131 55.908 126.365 55.18 126.365 54.192V38.904H137.285C138.377 38.904 139.131 39.19 139.547 39.762C140.015 40.282 140.249 41.114 140.249 42.258V54.192C140.249 55.18 140.457 55.908 140.873 56.376C141.341 56.792 142.069 57 143.057 57H155.147C156.135 57 156.837 56.792 157.253 56.376C157.721 55.908 157.955 55.18 157.955 54.192V37.656C157.955 34.38 157.071 31.754 155.303 29.778C153.587 27.802 151.325 26.658 148.517 26.346C150.129 25.67 151.247 24.578 151.871 23.07C152.547 21.51 152.885 19.638 152.885 17.454V13.866C152.885 10.018 151.767 6.898 149.531 4.506C147.347 2.062 143.343 0.839998 137.519 0.839998H111.545C110.557 0.839998 109.829 1.074 109.361 1.542C108.945 1.958 108.737 2.66 108.737 3.648V54.192C108.737 55.18 108.945 55.908 109.361 56.376C109.829 56.792 110.557 57 111.545 57H123.557ZM126.053 57.078L115.913 65.502C115.705 65.71 115.367 65.892 114.899 66.048C114.483 66.204 114.015 66.282 113.495 66.282H101.483C100.235 66.282 99.3248 65.996 98.7528 65.424C98.1808 64.852 97.8948 63.942 97.8948 62.694V12.15C97.8948 11.474 97.9728 10.902 98.1288 10.434C98.3368 9.966 98.6228 9.576 98.9868 9.264L109.049 0.761999C109.309 0.553998 109.647 0.397997 110.063 0.293995C110.531 0.137998 111.025 0.0599985 111.545 0.0599985H137.519C143.707 0.0599985 147.945 1.36 150.233 3.96C152.521 6.508 153.665 9.81 153.665 13.866V17.454C153.665 19.378 153.431 21.068 152.963 22.524C152.495 23.928 151.741 25.072 150.701 25.956H150.623C153.067 26.632 155.017 27.984 156.473 30.012C157.981 32.04 158.735 34.588 158.735 37.656V54.192C158.735 54.868 158.631 55.44 158.423 55.908C158.267 56.376 158.007 56.766 157.643 57.078L147.503 65.502C147.295 65.71 146.957 65.892 146.489 66.048C146.073 66.204 145.605 66.282 145.085 66.282H132.995C131.747 66.282 130.837 65.996 130.265 65.424C129.693 64.852 129.407 63.942 129.407 62.694V50.76C129.407 49.928 129.251 49.304 128.939 48.888C128.627 48.42 128.055 48.186 127.223 48.186H127.145V54.192C127.145 54.868 127.041 55.44 126.833 55.908C126.677 56.376 126.417 56.766 126.053 57.078ZM189.371 66.282H153.179C151.931 66.282 151.021 65.996 150.449 65.424C149.877 64.852 149.591 63.942 149.591 62.694V12.15C149.591 11.474 149.669 10.902 149.825 10.434C150.033 9.966 150.319 9.576 150.683 9.264L160.745 0.761999C161.005 0.553998 161.343 0.397997 161.759 0.293995C162.227 0.137998 162.721 0.0599985 163.241 0.0599985H199.433C200.681 0.0599985 201.591 0.345998 202.163 0.917997C202.735 1.49 203.021 2.4 203.021 3.648V12.774C203.021 13.45 202.917 14.022 202.709 14.49C202.553 14.958 202.293 15.348 201.929 15.66L195.221 21.198C195.741 21.458 196.105 21.848 196.313 22.368C196.573 22.888 196.703 23.564 196.703 24.396V32.742C196.703 33.418 196.599 33.99 196.391 34.458C196.235 34.926 195.975 35.316 195.611 35.628L188.669 41.478H199.433C200.681 41.478 201.591 41.764 202.163 42.336C202.735 42.908 203.021 43.818 203.021 45.066V54.192C203.021 54.868 202.917 55.44 202.709 55.908C202.553 56.376 202.293 56.766 201.929 57.078L191.789 65.502C191.581 65.71 191.243 65.892 190.775 66.048C190.359 66.204 189.891 66.282 189.371 66.282ZM199.433 57C200.421 57 201.123 56.792 201.539 56.376C202.007 55.908 202.241 55.18 202.241 54.192V45.066C202.241 44.078 202.007 43.376 201.539 42.96C201.123 42.492 200.421 42.258 199.433 42.258H177.905V35.55H193.115C194.103 35.55 194.805 35.342 195.221 34.926C195.689 34.458 195.923 33.73 195.923 32.742V24.396C195.923 23.408 195.689 22.706 195.221 22.29C194.805 21.822 194.103 21.588 193.115 21.588H177.905V15.582H199.433C200.421 15.582 201.123 15.374 201.539 14.958C202.007 14.49 202.241 13.762 202.241 12.774V3.648C202.241 2.66 202.007 1.958 201.539 1.542C201.123 1.074 200.421 0.839998 199.433 0.839998H163.241C162.253 0.839998 161.525 1.074 161.057 1.542C160.641 1.958 160.433 2.66 160.433 3.648V54.192C160.433 55.18 160.641 55.908 161.057 56.376C161.525 56.792 162.253 57 163.241 57H199.433ZM195.221 49.2V49.98H168.935V7.86H195.221V8.64H169.715V28.218H188.903V28.998H169.715V49.2H195.221ZM210.034 66.282H197.944C196.696 66.282 195.786 65.996 195.214 65.424C194.642 64.852 194.356 63.942 194.356 62.694V12.15C194.356 11.474 194.434 10.902 194.59 10.434C194.798 9.966 195.084 9.576 195.448 9.264L205.51 0.761999C205.77 0.553998 206.108 0.397997 206.524 0.293995C206.992 0.137998 207.486 0.0599985 208.006 0.0599985H242.794C244.042 0.0599985 244.952 0.345998 245.524 0.917997C246.096 1.49 246.382 2.4 246.382 3.648V12.93C246.382 13.606 246.278 14.178 246.07 14.646C245.914 15.114 245.654 15.504 245.29 15.816L236.554 23.07C237.75 23.07 238.634 23.356 239.206 23.928C239.778 24.5 240.064 25.41 240.064 26.658V36.018C240.064 36.694 239.96 37.266 239.752 37.734C239.596 38.202 239.336 38.592 238.972 38.904L228.832 47.328C228.624 47.536 228.286 47.718 227.818 47.874C227.402 48.03 226.934 48.108 226.414 48.108H223.684V54.192C223.684 54.868 223.58 55.44 223.372 55.908C223.216 56.376 222.956 56.766 222.592 57.078L212.452 65.502C212.244 65.71 211.906 65.892 211.438 66.048C211.022 66.204 210.554 66.282 210.034 66.282ZM220.096 57C221.084 57 221.786 56.792 222.202 56.376C222.67 55.908 222.904 55.18 222.904 54.192V38.826H236.476C237.464 38.826 238.166 38.618 238.582 38.202C239.05 37.734 239.284 37.006 239.284 36.018V26.658C239.284 25.67 239.05 24.968 238.582 24.552C238.166 24.084 237.464 23.85 236.476 23.85H222.904V15.738H242.794C243.782 15.738 244.484 15.53 244.9 15.114C245.368 14.646 245.602 13.918 245.602 12.93V3.648C245.602 2.66 245.368 1.958 244.9 1.542C244.484 1.074 243.782 0.839998 242.794 0.839998H208.006C207.018 0.839998 206.29 1.074 205.822 1.542C205.406 1.958 205.198 2.66 205.198 3.648V54.192C205.198 55.18 205.406 55.908 205.822 56.376C206.29 56.792 207.018 57 208.006 57H220.096ZM213.7 49.98V7.86H238.582V8.64H214.48V30.948H232.264V31.728H214.48V49.98H213.7ZM271.87 66.282H238.642C237.394 66.282 236.484 65.996 235.912 65.424C235.34 64.852 235.054 63.942 235.054 62.694V53.412C235.054 52.736 235.132 52.164 235.288 51.696C235.496 51.228 235.782 50.838 236.146 50.526L245.584 42.57V25.176H238.642C237.394 25.176 236.484 24.89 235.912 24.318C235.34 23.746 235.054 22.836 235.054 21.588V12.15C235.054 11.474 235.132 10.902 235.288 10.434C235.496 9.966 235.782 9.576 236.146 9.264L246.208 0.761999C246.468 0.553998 246.806 0.397997 247.222 0.293995C247.69 0.137998 248.184 0.0599985 248.704 0.0599985H281.932C283.18 0.0599985 284.09 0.345998 284.662 0.917997C285.234 1.49 285.52 2.4 285.52 3.648V13.086C285.52 13.762 285.416 14.334 285.208 14.802C285.052 15.27 284.792 15.66 284.428 15.972L275.146 23.772V41.322H281.932C283.18 41.322 284.09 41.608 284.662 42.18C285.234 42.752 285.52 43.662 285.52 44.91V54.192C285.52 54.868 285.416 55.44 285.208 55.908C285.052 56.376 284.792 56.766 284.428 57.078L274.288 65.502C274.08 65.71 273.742 65.892 273.274 66.048C272.858 66.204 272.39 66.282 271.87 66.282ZM248.704 57H281.932C282.92 57 283.622 56.792 284.038 56.376C284.506 55.908 284.74 55.18 284.74 54.192V44.91C284.74 43.922 284.506 43.22 284.038 42.804C283.622 42.336 282.92 42.102 281.932 42.102H274.366V15.894H281.932C282.92 15.894 283.622 15.686 284.038 15.27C284.506 14.802 284.74 14.074 284.74 13.086V3.648C284.74 2.66 284.506 1.958 284.038 1.542C283.622 1.074 282.92 0.839998 281.932 0.839998H248.704C247.716 0.839998 246.988 1.074 246.52 1.542C246.104 1.958 245.896 2.66 245.896 3.648V13.086C245.896 14.074 246.104 14.802 246.52 15.27C246.988 15.686 247.716 15.894 248.704 15.894H256.426V42.102H248.704C247.716 42.102 246.988 42.336 246.52 42.804C246.104 43.22 245.896 43.922 245.896 44.91V54.192C245.896 55.18 246.104 55.908 246.52 56.376C246.988 56.792 247.716 57 248.704 57ZM277.72 49.98H252.916V49.2H265.006V8.64H252.916V7.86H277.72V8.64H265.786V49.2H277.72V49.98ZM296.524 46.47V49.98H295.744V46.47C295.744 45.326 295.77 44.26 295.822 43.272C295.926 42.232 296.29 41.296 296.914 40.464L306.274 27.672L296.914 15.036C296.342 14.204 296.004 13.294 295.9 12.306C295.796 11.266 295.744 10.174 295.744 9.03V7.86H296.524V9.03C296.524 10.122 296.576 11.162 296.68 12.15C296.784 13.138 297.096 13.996 297.616 14.724L306.976 27.36H316.258L325.306 14.724C325.826 13.996 326.138 13.138 326.242 12.15C326.346 11.162 326.398 10.122 326.398 9.03V7.86H327.178V9.03C327.178 10.174 327.126 11.266 327.022 12.306C326.918 13.294 326.58 14.204 326.008 15.036L316.804 27.828L326.008 40.464C326.58 41.296 326.918 42.232 327.022 43.272C327.126 44.26 327.178 45.326 327.178 46.47V49.98H326.398V46.47C326.398 45.378 326.346 44.338 326.242 43.35C326.138 42.362 325.826 41.504 325.306 40.776L316.18 28.14H306.82L297.616 40.776C297.096 41.452 296.784 42.31 296.68 43.35C296.576 44.338 296.524 45.378 296.524 46.47ZM304.87 54.192V46.47C304.87 45.95 304.896 45.404 304.948 44.832C305 44.26 305.208 43.714 305.572 43.194L309.082 38.28C309.394 37.812 309.68 37.474 309.94 37.266C310.2 37.058 310.538 36.954 310.954 36.954H312.046C312.462 36.954 312.8 37.058 313.06 37.266C313.32 37.474 313.606 37.812 313.918 38.28L317.35 43.194C317.714 43.714 317.922 44.26 317.974 44.832C318.026 45.404 318.052 45.95 318.052 46.47V54.192C318.052 55.18 318.26 55.908 318.676 56.376C319.144 56.792 319.872 57 320.86 57H332.716C333.704 57 334.406 56.792 334.822 56.376C335.29 55.908 335.524 55.18 335.524 54.192V45.846C335.524 43.454 335.316 41.66 334.9 40.464C334.536 39.268 333.756 37.864 332.56 36.252L326.242 27.828L332.56 19.248C333.704 17.636 334.484 16.232 334.9 15.036C335.316 13.84 335.524 12.046 335.524 9.654V3.648C335.524 2.66 335.29 1.958 334.822 1.542C334.406 1.074 333.704 0.839998 332.716 0.839998H320.86C319.872 0.839998 319.144 1.074 318.676 1.542C318.26 1.958 318.052 2.66 318.052 3.648V9.03C318.052 9.55 318.026 10.096 317.974 10.668C317.922 11.24 317.714 11.786 317.35 12.306L313.84 17.22C313.528 17.636 313.242 17.974 312.982 18.234C312.722 18.442 312.384 18.546 311.968 18.546H311.032C310.616 18.546 310.252 18.442 309.94 18.234C309.68 17.974 309.42 17.636 309.16 17.22L305.728 12.306C305.364 11.786 305.156 11.24 305.104 10.668C305.052 10.096 305.026 9.55 305.026 9.03V3.648C305.026 2.66 304.792 1.958 304.324 1.542C303.908 1.074 303.206 0.839998 302.218 0.839998H290.206C289.218 0.839998 288.49 1.074 288.022 1.542C287.606 1.958 287.398 2.66 287.398 3.648V9.654C287.398 12.046 287.58 13.84 287.944 15.036C288.36 16.232 289.166 17.636 290.362 19.248L296.68 27.75L290.362 36.252C289.218 37.864 288.438 39.268 288.022 40.464C287.606 41.66 287.398 43.454 287.398 45.846V54.192C287.398 55.18 287.606 55.908 288.022 56.376C288.49 56.792 289.218 57 290.206 57H302.062C303.05 57 303.752 56.792 304.168 56.376C304.636 55.908 304.87 55.18 304.87 54.192ZM304.558 57.078L294.418 65.502C294.21 65.71 293.872 65.892 293.404 66.048C292.988 66.204 292.52 66.282 292 66.282H280.144C278.896 66.282 277.986 65.996 277.414 65.424C276.842 64.852 276.556 63.942 276.556 62.694V54.348C276.556 51.8 276.764 49.902 277.18 48.654C277.596 47.406 278.428 45.95 279.676 44.286L285.682 36.252L279.676 28.218C278.428 26.554 277.596 25.098 277.18 23.85C276.764 22.602 276.556 20.704 276.556 18.156V12.15C276.556 11.474 276.634 10.902 276.79 10.434C276.998 9.966 277.284 9.576 277.648 9.264L287.71 0.761999C287.97 0.553998 288.308 0.397997 288.724 0.293995C289.192 0.137998 289.686 0.0599985 290.206 0.0599985H302.218C303.466 0.0599985 304.376 0.345998 304.948 0.917997C305.52 1.49 305.806 2.4 305.806 3.648V9.03C305.806 9.498 305.806 9.992 305.806 10.512C305.858 10.98 306.04 11.422 306.352 11.838L307.21 13.086V12.15C307.21 11.474 307.288 10.902 307.444 10.434C307.652 9.966 307.938 9.576 308.302 9.264L318.364 0.761999C318.624 0.553998 318.962 0.397997 319.378 0.293995C319.846 0.137998 320.34 0.0599985 320.86 0.0599985H332.716C333.964 0.0599985 334.874 0.345998 335.446 0.917997C336.018 1.49 336.304 2.4 336.304 3.648V9.654C336.304 12.202 336.096 14.1 335.68 15.348C335.264 16.596 334.432 18.052 333.184 19.716L327.178 27.828L333.184 35.784C334.432 37.448 335.264 38.904 335.68 40.152C336.096 41.4 336.304 43.298 336.304 45.846V54.192C336.304 54.868 336.2 55.44 335.992 55.908C335.836 56.376 335.576 56.766 335.212 57.078L325.072 65.502C324.864 65.71 324.526 65.892 324.058 66.048C323.642 66.204 323.174 66.282 322.654 66.282H310.798C309.55 66.282 308.64 65.996 308.068 65.424C307.496 64.852 307.21 63.942 307.21 62.694V54.972C307.21 54.504 307.184 54.036 307.132 53.568C307.132 53.1 306.976 52.632 306.664 52.164L305.65 50.76V54.192C305.65 54.868 305.546 55.44 305.338 55.908C305.182 56.376 304.922 56.766 304.558 57.078Z" fill="#732753"/>
</svg>
